<svg width="38" height="38" viewBox="0 0 38 38" fill="none" xmlns="http://www.w3.org/2000/svg">
<path d="M21.4492 6.47193C21.2637 6.57583 21.0262 6.78365 20.9148 6.94693C20.759 7.16958 19.9945 9.75982 17.4785 18.5547C15.7047 24.7817 14.25 29.9918 14.25 30.1403C14.25 30.5262 14.5914 31.1497 14.9254 31.3723C15.3262 31.6321 15.6898 31.7063 16.1723 31.6098C16.4988 31.543 16.6398 31.4614 16.9145 31.1793L17.2633 30.8379L20.5066 19.4825C22.377 12.9215 23.75 8.00083 23.75 7.82271C23.75 7.39224 23.4234 6.79107 23.0598 6.54615C22.6293 6.25669 21.9094 6.22701 21.4492 6.47193Z" fill="white"/>
<path d="M8.98046 11.1552C8.78007 11.2146 7.89687 12.0459 5.32148 14.6138C3.33984 16.5881 1.85546 18.1244 1.75898 18.2951C1.55117 18.6959 1.55117 19.3045 1.75898 19.7052C1.85546 19.876 3.33984 21.4123 5.32148 23.3865C8.22343 26.2736 8.76523 26.7783 9.02499 26.8525C9.64101 27.0306 10.1309 26.9119 10.591 26.4666C11.0141 26.0732 11.1699 25.5685 11.0512 24.9896C10.9695 24.6111 10.9101 24.5443 8.1789 21.8056L5.38827 19.0002L8.1789 16.1947C10.8879 13.4783 10.9695 13.3892 11.0437 13.0256C11.3109 11.7713 10.2125 10.7842 8.98046 11.1552Z" fill="white"/>
<path d="M27.9582 11.1626C27.4609 11.3407 27.1418 11.6895 26.9785 12.2091C26.882 12.5134 26.882 12.6544 26.9488 12.9884L27.0305 13.3966L29.8211 16.1946L32.6117 19.0001L29.8211 21.8056L27.0305 24.6036L26.9488 25.0118C26.7039 26.1993 27.7578 27.179 28.9305 26.8673C29.2496 26.7782 29.5465 26.511 32.6785 23.3864C34.7121 21.3677 36.1445 19.8833 36.2336 19.7052C36.3375 19.5122 36.3894 19.2673 36.3894 19.0001C36.3894 18.7329 36.3375 18.488 36.2336 18.295C36.1445 18.1169 34.7121 16.6399 32.6785 14.6138C29.7765 11.7267 29.2347 11.222 28.975 11.1478C28.5816 11.0364 28.3144 11.0364 27.9582 11.1626Z" fill="white"/>
</svg>
