<?xml version="1.0" standalone="no"?>
<!DOCTYPE svg PUBLIC "-//W3C//DTD SVG 20010904//EN"
 "http://www.w3.org/TR/2001/REC-SVG-20010904/DTD/svg10.dtd">
<svg version="1.0" xmlns="http://www.w3.org/2000/svg"
 width="512.000000pt" height="512.000000pt" viewBox="0 0 512.000000 512.000000"
 preserveAspectRatio="xMidYMid meet">

<g transform="translate(0.000000,512.000000) scale(0.100000,-0.100000)"
fill="#FFFFFF" stroke="none">
<path d="M845 5111 c-86 -21 -183 -98 -218 -174 -63 -133 -39 -275 63 -377 25
-25 68 -57 95 -70 l50 -25 1580 -3 1580 -2 -1977 -1978 c-2208 -2209 -2014
-2001 -2012 -2157 0 -67 5 -89 28 -137 35 -69 84 -118 156 -154 46 -24 68 -28
135 -29 156 0 -52 -195 2157 2013 l1978 1977 2 -1580 3 -1580 28 -57 c33 -68
90 -121 166 -156 44 -21 72 -26 131 -27 66 0 85 5 142 33 76 37 120 82 157
162 l26 55 0 2015 0 2015 -29 58 c-35 68 -98 130 -164 160 l-47 22 -2000 2
c-1100 0 -2013 -2 -2030 -6z"/>
</g>
</svg>
